<svg width="469" height="253" viewBox="0 0 469 253" fill="none" xmlns="http://www.w3.org/2000/svg">
<path d="M51.9048 168.31C45.5499 164.033 36.5537 163.856 29.4511 166.062C19.0454 169.294 11.9429 178.691 8.2353 188.541C4.301 198.989 3.38177 211.118 4.36228 222.183C4.96284 229.002 6.78292 236.615 11.2933 241.98C12.6353 243.574 14.3328 244.876 16.1162 245.957C19.3273 247.9 23.0349 249 26.8834 249C30.0026 249 33.03 248.303 35.8796 246.923C43.0924 243.446 48.9755 238.026 53.8781 230.364C54.3806 229.582 54.8647 228.788 55.3427 227.981C58.3762 222.837 61.5873 217.716 63.5912 212.065C65.681 206.156 66.9679 199.698 67.8994 193.521C68.9902 186.274 68.7941 178.759 63.6341 172.862C62.9723 172.111 61.9795 171.213 60.9745 171.213C56.9054 171.213 56.1639 176.614 55.9249 179.657C55.4653 185.516 55.5694 191.657 57.1505 197.235C57.9227 199.961 60.8213 208.215 64.6269 210.562C69.7623 213.733 74.8978 215.511 81.0076 214.246C91.3274 212.101 98.7303 203.84 104.503 195.61C121.337 171.616 130.67 143.149 136.719 114.493C143.497 82.3905 146.438 49.2983 142.933 16.6827C142.418 11.8924 140.806 6.03285 136.063 5.11023C133.103 4.53588 130.192 6.29558 127.95 8.31191C122.888 12.8639 119.517 18.9862 116.735 25.194C110.061 40.0843 106.237 56.0805 103.179 72.1011C96.7877 105.597 93.6929 139.526 94.6734 173.638C95.0473 186.61 96.0645 199.789 100.085 212.205C103.192 221.804 109.798 238.142 122.066 238.142C125.468 238.142 129.132 236.963 132.968 234.635C153.228 222.342 162.739 200.242 174.444 180.744C180.339 170.919 190.763 154.025 203.792 154.245C218.046 154.489 227.667 177.714 235.138 187.123C240.58 193.979 246.266 200.553 254.098 204.788C267.519 212.04 284.157 210.83 298.546 205.741C314.326 200.156 328.715 190.661 343.141 182.351C345.194 181.166 347.253 179.987 349.306 178.807C358.112 173.754 368.72 168.585 380.639 168.585C382.079 168.585 383.532 168.659 384.966 168.811C390.947 169.441 397.051 170.962 402.615 173.223C410.318 176.351 418.034 179.907 425.498 183.341C429.702 185.278 434.053 187.282 438.367 189.195C445.819 192.5 454.809 195.91 465 196.154" stroke="black" stroke-width="8" stroke-miterlimit="10" stroke-linecap="round"/>
</svg>
